<?xml version="1.0" encoding="UTF-8"?><svg id="_レイヤー_1" xmlns="http://www.w3.org/2000/svg" width="26.92mm" height="51.17mm" viewBox="0 0 76.31 145.06"><path d="m70.86,144.56c3,0,5.45-2.55,5.45-5.66V5.67C76.31,2.55,73.86,0,70.86,0H5.45C2.45,0,0,2.55,0,5.67v133.23c0,3.12,2.45,5.67,5.45,5.67h65.41s0,0,0,0Zm.31-143.59c5.58,0,5.57,9,0,9s-5.57-9,0-9Zm-66.04,0c5.58,0,5.57,9,0,9s-5.57-9,0-9Zm66.04,133.59c5.58,0,5.57,9,0,9s-5.57-9,0-9Zm-66.04,0c5.58,0,5.57,9,0,9s-5.57-9,0-9Z" fill="#3e3a39"/><polygon points="12.74 125.22 22.52 125.22 63.76 125.22 63.76 145.06 12.74 145.06 12.74 125.22" fill="#595857"/><polyline points="19.82 126.04 19.82 141.67 26.9 141.67 26.9 126.04" fill="none" stroke="#3e3a39" stroke-miterlimit="10"/><polyline points="26.9 141.67 32.56 141.67 32.56 133.86 38.25 133.86 38.25 141.67 43.96 141.67 43.96 133.86 49.69 133.86 49.69 141.67 55.35 141.67 55.62 126.04" fill="none" stroke="#3e3a39" stroke-miterlimit="10"/><circle cx="19.82" cy="126.04" r=".28" fill="none" stroke="#ddc978" stroke-miterlimit="10"/><circle cx="26.9" cy="126.04" r=".28" fill="#ddc978" stroke="#ddc978" stroke-miterlimit="10"/><polygon points="12.74 71.86 22.52 71.86 63.76 71.86 63.76 125.22 12.74 125.22 12.74 71.86" fill="#595857"/><rect x="16.99" y="75.88" width="42.52" height="48.19" fill="#dcdddd" stroke="#dcdddd" stroke-miterlimit="10"/><ellipse cx="51.35" cy="112.23" rx="3.67" ry="3.57" fill="#f0efef" stroke="#f0efef" stroke-miterlimit="10"/><path d="m46.76,112.23c0-1.23,1.02-2.23,2.27-2.23h4.63c1.25,0,2.27,1,2.27,2.23s-1.02,2.23-2.27,2.23h-4.63c-1.25,0-2.27-1-2.27-2.23Z" fill="#f0efef"/><path d="m46.76,112.23c0-1.23,1.02-2.23,2.27-2.23h4.63c1.25,0,2.27,1,2.27,2.23s-1.02,2.23-2.27,2.23h-4.63c-1.25,0-2.27-1-2.27-2.23Z" fill="none" stroke="#f0efef" stroke-miterlimit="10"/><path d="m48.84,114.37c1.03,0,1.98-.71,2.11-1.57.13-.86-.05-2.71-1.3-2.71h-.42c-1.25,0-2.27.96-2.27,2.14s.84,2.14,1.87,2.14h0Z" fill="#dcdddd"/><path d="m48.84,114.37c1.03,0,1.98-.71,2.11-1.57.13-.86-.05-2.71-1.3-2.71h-.42c-1.25,0-2.27.96-2.27,2.14s.84,2.14,1.87,2.14h0Z" fill="none" stroke="#dcdddd" stroke-miterlimit="10"/><g isolation="isolate"><text transform="translate(55.34 109.79) rotate(-180) scale(.51 1)" fill="#dcdddd" font-family="DroidSans, &apos;Droid Sans&apos;" font-size="6.24" isolation="isolate"><tspan x="0" y="0">Wi</tspan></text></g><g isolation="isolate"><text transform="translate(50.17 109.79) rotate(-180) scale(.51 1)" fill="#f0efef" font-family="DroidSans, &apos;Droid Sans&apos;" font-size="6.24" isolation="isolate"><tspan x="0" y="0">Fi</tspan></text></g><g isolation="isolate"><text transform="translate(45.37 110.47) rotate(-180) scale(.94 1)" fill="#c9caca" font-family="DroidSans, &apos;Droid Sans&apos;" font-size="3.56" isolation="isolate"><tspan x="0" y="0">ESP-WROOM-32</tspan></text></g><path d="m38.02,99.4c4.96,0,4.96,7.2,0,7.2h-.14v.53c.14,0,.29.02.43.02,2.41,0,4.37-1.83,4.37-4.08s-1.96-4.08-4.37-4.08c-.14,0-.27,0-.41.02v.41h.11v-.02h0Z" fill="none" stroke="#f0efef" stroke-miterlimit="10" stroke-width="1.1"/><path d="m28.45,99.4c2.51,0,3.75,1.84,3.72,3.66s-1.27,3.54-3.72,3.54h-.14v.53c.14,0,.29.02.43.02,2.41,0,4.37-1.83,4.37-4.08s-1.96-4.08-4.37-4.08c-.14,0-.27,0-.41.02v.41h.11v-.02h0Z" fill="none" stroke="#f0efef" stroke-miterlimit="10" stroke-width="1.1"/><line x1="27.78" y1="103.06" x2="32.17" y2="103.06" fill="none" stroke="#f0efef" stroke-miterlimit="10" stroke-width="1.1"/><path d="m43.41,93.62c0-2.19,1.78-3.97,3.97-3.97s3.97,1.78,3.97,3.97-1.78,3.97-3.97,3.97c-1.27,0-2.41-.6-3.13-1.53l2.45-1.77,1.34.97,2.85-2.02" fill="none" stroke="#f0efef" stroke-miterlimit="10" stroke-width=".5"/><line x1="44.96" y1="93.3" x2="49.21" y2="93.3" fill="none" stroke="#f0efef" stroke-miterlimit="10" stroke-width=".5"/><polyline points="49.21 92.22 47.09 92.22 44.96 92.22" fill="none" stroke="#f0efef" stroke-miterlimit="10" stroke-width=".5"/><line x1="47.09" y1="89.66" x2="47.09" y2="92.22" fill="none" stroke="#f0efef" stroke-miterlimit="10" stroke-width=".5"/><rect x="35.44" y="92.7" width="6.23" height="4.5" fill="none" stroke="#f0efef" stroke-miterlimit="10" stroke-width=".5"/><g isolation="isolate"><text transform="translate(40.49 93.48) rotate(-180) scale(1.51 1)" fill="#f0efef" font-family="DroidSans, &apos;Droid Sans&apos;" font-size="3.36" isolation="isolate"><tspan x="0" y="0">R</tspan></text></g><g isolation="isolate"><text transform="translate(34.21 94.37) rotate(-180) scale(.97 1)" fill="#f0efef" font-family="DroidSans, &apos;Droid Sans&apos;" font-size="3.31" isolation="isolate"><tspan x="0" y="0">211-161007</tspan></text></g><g isolation="isolate"><text transform="translate(51.35 85.83) rotate(-180) scale(.57 1)" fill="#f0efef" font-family="DroidSans, &apos;Droid Sans&apos;" font-size="4.47" isolation="isolate"><tspan x="0" y="0">F</tspan></text></g><g isolation="isolate"><text transform="translate(50.1 85.83) rotate(-180) scale(.57 1)" fill="#f0efef" font-family="DroidSans, &apos;Droid Sans&apos;" font-size="4.47" isolation="isolate" letter-spacing="-.02em"><tspan x="0" y="0">C</tspan></text></g><g isolation="isolate"><text transform="translate(48.61 85.83) rotate(-180) scale(.57 1)" fill="#f0efef" font-family="DroidSans, &apos;Droid Sans&apos;" font-size="4.47" isolation="isolate"><tspan x="0" y="0">C ID:2</tspan></text></g><g isolation="isolate"><text transform="translate(41.72 85.83) rotate(-180) scale(.57 1)" fill="#f0efef" font-family="DroidSans, &apos;Droid Sans&apos;" font-size="4.47" isolation="isolate"><tspan x="0" y="0">A</tspan></text></g><g isolation="isolate"><text transform="translate(40.2 85.83) rotate(-180) scale(.57 1)" fill="#f0efef" font-family="DroidSans, &apos;Droid Sans&apos;" font-size="4.47" isolation="isolate"><tspan x="0" y="0">C7Z-ESPWROOM32</tspan></text></g><path d="m12.95,124.55h3.54v-2.34h-3.75c1.58.51,1.65,1.77.21,2.34Z" fill="#ddc978"/><path d="m12.95,84.94h3.54v-2.34h-3.75c1.58.51,1.65,1.77.21,2.34Z" fill="#ddc978"/><path d="m12.95,77.74h3.54v-2.34h-3.75c1.58.51,1.65,1.77.21,2.34Z" fill="#ddc978"/><path d="m12.95,81.34h3.54v-2.34h-3.75c1.58.51,1.65,1.77.21,2.34Z" fill="#ddc978"/><path d="m12.95,88.54h3.54v-2.34h-3.75c1.58.51,1.65,1.77.21,2.34Z" fill="#ddc978"/><path d="m12.95,92.14h3.54v-2.34h-3.75c1.58.51,1.65,1.77.21,2.34Z" fill="#ddc978"/><path d="m12.95,95.74h3.54v-2.34h-3.75c1.58.51,1.65,1.77.21,2.34Z" fill="#ddc978"/><path d="m12.95,99.34h3.54v-2.34h-3.75c1.58.51,1.65,1.77.21,2.34Z" fill="#ddc978"/><path d="m12.95,102.94h3.54v-2.34h-3.75c1.58.51,1.65,1.77.21,2.34Z" fill="#ddc978"/><path d="m12.95,106.54h3.54v-2.34h-3.75c1.58.51,1.65,1.77.21,2.34Z" fill="#ddc978"/><path d="m12.95,110.14h3.54v-2.34h-3.75c1.58.51,1.65,1.77.21,2.34Z" fill="#ddc978"/><path d="m12.95,113.75h3.54v-2.34h-3.75c1.58.51,1.65,1.77.21,2.34Z" fill="#ddc978"/><path d="m12.95,117.35h3.54v-2.34h-3.75c1.58.51,1.65,1.77.21,2.34Z" fill="#ddc978"/><path d="m12.95,120.95h3.54v-2.34h-3.75c1.58.51,1.65,1.77.21,2.34Z" fill="#ddc978"/><path d="m63.47,75.4h-3.44v2.34h3.64c-1.54-.51-1.6-1.77-.2-2.34Z" fill="#ddc978"/><path d="m63.47,115h-3.44v2.34h3.64c-1.54-.51-1.6-1.77-.2-2.34Z" fill="#ddc978"/><path d="m63.47,122.21h-3.44v2.34h3.64c-1.54-.51-1.6-1.77-.2-2.34Z" fill="#ddc978"/><path d="m63.47,118.61h-3.44v2.34h3.64c-1.54-.51-1.6-1.77-.2-2.34Z" fill="#ddc978"/><path d="m63.47,111.4h-3.44v2.34h3.64c-1.54-.51-1.6-1.77-.2-2.34Z" fill="#ddc978"/><path d="m63.47,107.8h-3.44v2.34h3.64c-1.54-.51-1.6-1.77-.2-2.34Z" fill="#ddc978"/><path d="m63.47,104.2h-3.44v2.34h3.64c-1.54-.51-1.6-1.77-.2-2.34Z" fill="#ddc978"/><path d="m63.47,100.6h-3.44v2.34h3.64c-1.54-.51-1.6-1.77-.2-2.34Z" fill="#ddc978"/><path d="m63.47,97h-3.44v2.34h3.64c-1.54-.51-1.6-1.77-.2-2.34Z" fill="#ddc978"/><path d="m63.47,93.4h-3.44v2.34h3.64c-1.54-.51-1.6-1.77-.2-2.34Z" fill="#ddc978"/><path d="m63.47,89.8h-3.44v2.34h3.64c-1.54-.51-1.6-1.77-.2-2.34Z" fill="#ddc978"/><path d="m63.47,86.2h-3.44v2.34h3.64c-1.54-.51-1.6-1.77-.2-2.34Z" fill="#ddc978"/><path d="m63.47,82.6h-3.44v2.34h3.64c-1.54-.51-1.6-1.77-.2-2.34Z" fill="#ddc978"/><path d="m63.47,79h-3.44v2.34h3.64c-1.54-.51-1.6-1.77-.2-2.34Z" fill="#ddc978"/><rect x="8.99" y="122.21" width="3.75" height="2.34" fill="#f0efef"/><rect x="8.99" y="118.61" width="3.75" height="2.34" fill="#f0efef"/><rect x="8.99" y="115.01" width="3.75" height="2.34" fill="#f0efef"/><rect x="8.99" y="111.41" width="3.75" height="2.34" fill="#f0efef"/><rect x="8.99" y="107.8" width="3.75" height="2.34" fill="#f0efef"/><rect x="8.99" y="104.2" width="3.75" height="2.34" fill="#f0efef"/><rect x="8.99" y="100.6" width="3.75" height="2.34" fill="#f0efef"/><rect x="8.99" y="97" width="3.75" height="2.34" fill="#f0efef"/><rect x="8.99" y="93.4" width="3.75" height="2.34" fill="#f0efef"/><rect x="8.99" y="89.8" width="3.75" height="2.34" fill="#f0efef"/><rect x="8.99" y="86.2" width="3.75" height="2.34" fill="#f0efef"/><rect x="8.99" y="82.6" width="3.75" height="2.34" fill="#f0efef"/><rect x="8.99" y="79" width="3.75" height="2.34" fill="#f0efef"/><rect x="8.99" y="75.4" width="3.75" height="2.34" fill="#f0efef"/><rect x="63.67" y="122.13" width="3.75" height="2.34" fill="#f0efef"/><rect x="63.67" y="118.53" width="3.75" height="2.34" fill="#f0efef"/><rect x="63.67" y="114.93" width="3.75" height="2.34" fill="#f0efef"/><rect x="63.67" y="111.33" width="3.75" height="2.34" fill="#f0efef"/><rect x="63.67" y="107.73" width="3.75" height="2.34" fill="#f0efef"/><rect x="63.67" y="104.12" width="3.75" height="2.34" fill="#f0efef"/><rect x="63.67" y="100.52" width="3.75" height="2.34" fill="#f0efef"/><rect x="63.67" y="96.92" width="3.75" height="2.34" fill="#f0efef"/><rect x="63.67" y="93.32" width="3.75" height="2.34" fill="#f0efef"/><rect x="63.67" y="89.72" width="3.75" height="2.34" fill="#f0efef"/><rect x="63.67" y="86.12" width="3.75" height="2.34" fill="#f0efef"/><rect x="63.67" y="82.52" width="3.75" height="2.34" fill="#f0efef"/><rect x="63.67" y="78.92" width="3.75" height="2.34" fill="#f0efef"/><rect x="63.67" y="75.32" width="3.75" height="2.34" fill="#f0efef"/><path d="m47.85,71.92v3.44h2.34v-3.64c-.51,1.54-1.77,1.6-2.34.2Z" fill="#ddc978"/><path d="m55.05,71.92v3.44h2.34v-3.64c-.51,1.54-1.77,1.6-2.34.2Z" fill="#ddc978"/><path d="m51.45,71.92v3.44h2.34v-3.64c-.51,1.54-1.77,1.6-2.34.2Z" fill="#ddc978"/><path d="m44.24,71.92v3.44h2.34v-3.64c-.51,1.54-1.77,1.6-2.34.2Z" fill="#ddc978"/><path d="m40.64,71.92v3.44h2.34v-3.64c-.51,1.54-1.77,1.6-2.34.2Z" fill="#ddc978"/><path d="m37.04,71.92v3.44h2.34v-3.64c-.51,1.54-1.77,1.6-2.34.2Z" fill="#ddc978"/><path d="m33.44,71.92v3.44h2.34v-3.64c-.51,1.54-1.77,1.6-2.34.2Z" fill="#ddc978"/><path d="m29.84,71.92v3.44h2.34v-3.64c-.51,1.54-1.77,1.6-2.34.2Z" fill="#ddc978"/><path d="m26.24,71.92v3.44h2.34v-3.64c-.51,1.54-1.77,1.6-2.34.2Z" fill="#ddc978"/><path d="m22.64,71.92v3.44h2.34v-3.64c-.51,1.54-1.77,1.6-2.34.2Z" fill="#ddc978"/><rect x="55.05" y="68.11" width="2.34" height="3.75" fill="#f0efef"/><rect x="51.45" y="68.11" width="2.34" height="3.75" fill="#f0efef"/><rect x="47.85" y="68.11" width="2.34" height="3.75" fill="#f0efef"/><rect x="44.25" y="68.11" width="2.34" height="3.75" fill="#f0efef"/><rect x="40.65" y="68.11" width="2.34" height="3.75" fill="#f0efef"/><rect x="37.05" y="68.11" width="2.34" height="3.75" fill="#f0efef"/><rect x="33.45" y="68.11" width="2.34" height="3.75" fill="#f0efef"/><rect x="29.85" y="68.11" width="2.34" height="3.75" fill="#f0efef"/><rect x="26.25" y="68.12" width="2.34" height="3.75" fill="#f0efef"/><rect x="22.65" y="68.12" width="2.34" height="3.75" fill="#f0efef"/><circle cx="56.22" cy="80.09" r=".71" fill="#231815"/><rect x="55.04" y="61.51" width="8.63" height="3.6" rx=".01" ry=".01" fill="none" stroke="#dcdddd" stroke-miterlimit="10" stroke-width=".75"/><rect x="55.01" y="56.14" width="8.66" height="3.6" rx=".01" ry=".01" fill="none" stroke="#dcdddd" stroke-miterlimit="10" stroke-width=".75"/><rect x="50.12" y="55.99" width="3.6" height="9.3" rx=".01" ry=".01" fill="none" stroke="#dcdddd" stroke-miterlimit="10" stroke-width=".75"/><rect x="19.41" y="55.95" width="3.6" height="9.3" rx=".01" ry=".01" fill="none" stroke="#dcdddd" stroke-miterlimit="10" stroke-width=".75"/><rect x="24.53" y="55.95" width="3.6" height="9.3" rx=".01" ry=".01" fill="none" stroke="#dcdddd" stroke-miterlimit="10" stroke-width=".75"/><rect x="29.65" y="55.95" width="3.6" height="9.3" rx=".01" ry=".01" fill="none" stroke="#dcdddd" stroke-miterlimit="10" stroke-width=".75"/><rect x="34.77" y="55.95" width="3.6" height="9.3" rx=".01" ry=".01" fill="none" stroke="#dcdddd" stroke-miterlimit="10" stroke-width=".75"/><rect x="39.88" y="55.95" width="3.6" height="9.3" fill="none" stroke="#dcdddd" stroke-miterlimit="10" stroke-width=".75"/><rect x="45" y="55.95" width="3.6" height="9.3" rx=".01" ry=".01" fill="none" stroke="#dcdddd" stroke-miterlimit="10" stroke-width=".75"/><rect x="9.36" y="61.69" width="8.63" height="3.6" rx=".01" ry=".01" fill="none" stroke="#dcdddd" stroke-miterlimit="10" stroke-width=".75"/><rect x="9.33" y="56.31" width="8.66" height="3.6" fill="none" stroke="#dcdddd" stroke-miterlimit="10" stroke-width=".75"/><rect x="48.61" y="45.46" width="15.41" height="7.04" rx=".01" ry=".01" fill="none" stroke="#dcdddd" stroke-miterlimit="10" stroke-width=".75"/><rect x="42.44" y="44.33" width="3.6" height="9.3" rx=".01" ry=".01" fill="none" stroke="#dcdddd" stroke-miterlimit="10" stroke-width=".75"/><rect x="9.36" y="44.32" width="3.6" height="9.3" rx=".01" ry=".01" fill="none" stroke="#dcdddd" stroke-miterlimit="10" stroke-width=".75"/><rect x="55.84" y="62.05" width="7.04" height="2.52" fill="#c9caca"/><rect x="56.11" y="62.05" width="6.5" height="2.52" fill="#b5b5b6"/><rect x="57.01" y="62.05" width="4.69" height="2.52" rx=".57" ry=".57" fill="#a28a78"/><rect x="55.82" y="56.68" width="7.04" height="2.52" fill="#c9caca"/><rect x="56.09" y="56.68" width="6.5" height="2.52" fill="#b5b5b6"/><rect x="57" y="56.68" width="4.69" height="2.52" rx=".57" ry=".57" fill="#a28a78"/><rect x="50.66" y="57.29" width="2.52" height="7.04" fill="#c9caca"/><rect x="50.66" y="57.56" width="2.52" height="6.5" fill="#b5b5b6"/><rect x="50.66" y="58.08" width="2.52" height="5.46" fill="#c9caca"/><polygon points="53.18 62.5 50.66 62.5 50.66 60.53 52.43 60.53 52.43 59.52 53.18 59.52 53.18 62.5" fill="#f0efef"/><polygon points="52.29 60.29 50.74 60.29 50.74 59.11 51.3 59.52 52.29 59.52 52.29 60.29" fill="#23a664"/><rect x="45.54" y="57.09" width="2.52" height="7.04" fill="#c9caca"/><rect x="45.54" y="57.36" width="2.52" height="6.5" fill="#b5b5b6"/><rect x="45.54" y="58.26" width="2.52" height="4.69" rx=".57" ry=".57" fill="#3e3a39"/><g isolation="isolate"><text transform="translate(45.83 58.54) rotate(90)" fill="#f7f9f9" font-family="DroidSans, &apos;Droid Sans&apos;" font-size="2.67" isolation="isolate"><tspan x="0" y="0">201</tspan></text></g><rect x="40.42" y="57.09" width="2.52" height="7.04" fill="#c9caca"/><rect x="40.42" y="57.35" width="2.52" height="6.5" fill="#b5b5b6"/><rect x="40.43" y="58.26" width="2.52" height="4.69" rx=".57" ry=".57" fill="#3e3a39"/><g isolation="isolate"><text transform="translate(40.72 58.54) rotate(90) scale(.91 1)" fill="#f7f9f9" font-family="DroidSans, &apos;Droid Sans&apos;" font-size="2.67" isolation="isolate"><tspan x="0" y="0">103</tspan></text></g><rect x="35.31" y="57.11" width="2.52" height="7.04" fill="#c9caca"/><rect x="35.31" y="57.38" width="2.52" height="6.5" fill="#b5b5b6"/><rect x="35.31" y="58.29" width="2.52" height="4.69" rx=".57" ry=".57" fill="#3e3a39"/><g isolation="isolate"><text transform="translate(35.6 58.57) rotate(90) scale(.89 1)" fill="#f7f9f9" font-family="DroidSans, &apos;Droid Sans&apos;" font-size="2.67" isolation="isolate"><tspan x="0" y="0">102</tspan></text></g><rect x="25.08" y="57.12" width="2.52" height="7.04" fill="#c9caca"/><rect x="25.08" y="57.39" width="2.52" height="6.5" fill="#b5b5b6"/><rect x="25.07" y="58.29" width="2.52" height="4.69" rx=".57" ry=".57" fill="#3e3a39"/><g isolation="isolate"><text transform="translate(25.36 58.57) rotate(90) scale(.91 1)" fill="#f7f9f9" font-family="DroidSans, &apos;Droid Sans&apos;" font-size="2.67" isolation="isolate"><tspan x="0" y="0">103</tspan></text></g><rect x="30.19" y="57.12" width="2.52" height="7.04" fill="#c9caca"/><rect x="30.19" y="57.39" width="2.52" height="6.5" fill="#b5b5b6"/><rect x="30.19" y="58.29" width="2.52" height="4.69" rx=".57" ry=".57" fill="#3e3a39"/><g isolation="isolate"><text transform="translate(30.48 58.57) rotate(90) scale(.91 1)" fill="#f7f9f9" font-family="DroidSans, &apos;Droid Sans&apos;" font-size="2.67" isolation="isolate"><tspan x="0" y="0">102</tspan></text></g><rect x="19.95" y="57.09" width="2.52" height="7.04" fill="#c9caca"/><rect x="19.95" y="57.35" width="2.52" height="6.5" fill="#b5b5b6"/><rect x="19.95" y="57.88" width="2.52" height="5.46" fill="#c9caca"/><polygon points="22.48 57.88 22.48 58.58 21.85 58.58 22.48 57.88" fill="#0e9b94"/><rect x="19.96" y="58.55" width="2.52" height="3.95" fill="#f0efef"/><polygon points="20.61 61.84 20.61 61.18 21.68 61.18 21.68 59.47 20.61 59.47 20.61 58.68 20.01 58.68 20.01 61.81 20.61 61.84" fill="#dcdddd"/><rect x="21.22" y="61.93" width="1.14" height=".48" fill="#dcdddd"/><polyline points="21.85 62.14 21.4 60.73 20.84 60.73 20.39 61.61" fill="none" stroke="#c59d62" stroke-miterlimit="10" stroke-width=".25"/><rect x="10.16" y="56.85" width="7.04" height="2.52" fill="#c9caca"/><rect x="10.42" y="56.85" width="6.5" height="2.52" fill="#b5b5b6"/><rect x="11.33" y="56.86" width="4.69" height="2.52" rx=".57" ry=".57" fill="#3e3a39"/><g isolation="isolate"><text transform="translate(11.61 59.08) scale(.93 1)" fill="#f7f9f9" font-family="DroidSans, &apos;Droid Sans&apos;" font-size="2.67" isolation="isolate"><tspan x="0" y="0">102</tspan></text></g><rect x="10.14" y="62.28" width="7.04" height="2.52" fill="#c9caca"/><rect x="10.41" y="62.28" width="6.5" height="2.52" fill="#b5b5b6"/><rect x="11.31" y="62.27" width="4.69" height="2.52" rx=".57" ry=".57" fill="#3e3a39"/><g isolation="isolate"><text transform="translate(11.59 64.51) scale(.93 1)" fill="#f7f9f9" font-family="DroidSans, &apos;Droid Sans&apos;" font-size="2.67" isolation="isolate"><tspan x="0" y="0">103</tspan></text></g><rect x="9.9" y="45.46" width="2.52" height="7.04" fill="#c9caca"/><rect x="9.9" y="45.73" width="2.52" height="6.5" fill="#b5b5b6"/><rect x="9.9" y="46.63" width="2.52" height="4.69" rx=".57" ry=".57" fill="#3e3a39"/><g isolation="isolate"><text transform="translate(12.13 51.05) rotate(-90) scale(.9 1)" fill="#f7f9f9" font-family="DroidSans, &apos;Droid Sans&apos;" font-size="2.67" isolation="isolate"><tspan x="0" y="0">103</tspan></text></g><rect x="42.98" y="45.46" width="2.52" height="7.04" fill="#c9caca"/><rect x="42.98" y="45.74" width="2.52" height="6.5" fill="#b5b5b6"/><rect x="42.99" y="46.63" width="2.52" height="4.69" rx=".57" ry=".57" fill="#3e3a39"/><g isolation="isolate"><text transform="translate(45.21 51.05) rotate(-90) scale(.94 1)" fill="#f7f9f9" font-family="DroidSans, &apos;Droid Sans&apos;" font-size="2.67" isolation="isolate"><tspan x="0" y="0">103</tspan></text></g><rect x="59.41" y="46.04" width="3.76" height="5.92" fill="#c9caca"/><rect x="49.87" y="46.02" width="3.76" height="5.94" fill="#c9caca"/><rect x="51.75" y="46.03" width="9.54" height="5.88" fill="#c59d62"/><rect x="58.49" y="46.03" width="2.66" height="5.88" fill="#983823"/><rect x="16.89" y="43.87" width="3.5" height="10.09" fill="#322b29"/><rect x="35.03" y="43.96" width="3.5" height="10.09" fill="#322b29"/><rect x="14.07" y="50.16" width="2.73" height="2.34" fill="#dcdddd"/><rect x="14.07" y="45.46" width="2.73" height="2.34" fill="#dcdddd"/><rect x="20.42" y="47.74" width="2.73" height="2.34" fill="#dcdddd"/><rect x="38.59" y="45.75" width="2.73" height="2.34" fill="#dcdddd"/><rect x="38.59" y="50.45" width="2.73" height="2.34" fill="#dcdddd"/><rect x="32.23" y="48.16" width="2.73" height="2.34" fill="#dcdddd"/><rect x="46.8" y="25.33" width="9.72" height="18.22" rx=".01" ry=".01" fill="none" stroke="#dcdddd" stroke-miterlimit="10" stroke-width=".75"/><rect x="46.36" y="25.33" width="10.57" height="18.22" fill="#322b29"/><rect x="58.74" y="28.33" width="5.28" height="12.22" fill="#b5b5b6"/><rect x="56.93" y="28.86" width="4.92" height="11.16" fill="#dcdddd"/><rect x="38.9" y="38.9" width="6.43" height="4.44" fill="#b5b5b6"/><rect x="40.99" y="40.03" width="5.38" height="2.34" fill="#dcdddd"/><rect x="38.9" y="32.23" width="6.43" height="4.44" fill="#b5b5b6"/><rect x="38.9" y="25.55" width="6.43" height="4.44" fill="#b5b5b6"/><rect x="40.99" y="33.28" width="5.38" height="2.34" fill="#dcdddd"/><rect x="40.99" y="26.53" width="5.38" height="2.34" fill="#dcdddd"/><rect x="11.33" y="27.27" width="14.35" height="14.35" fill="#322b29"/><rect x="21.56" y="41.69" width=".91" height="1.18" fill="#b5b5b6"/><rect x="14.53" y="41.69" width=".91" height="1.18" fill="#b5b5b6"/><rect x="15.7" y="41.69" width=".91" height="1.18" fill="#b5b5b6"/><rect x="16.87" y="41.69" width=".91" height="1.18" fill="#b5b5b6"/><rect x="18.04" y="41.69" width=".91" height="1.18" fill="#b5b5b6"/><rect x="19.22" y="41.68" width=".91" height="1.18" fill="#b5b5b6"/><rect x="20.39" y="41.69" width=".91" height="1.18" fill="#b5b5b6"/><rect x="10.15" y="37.64" width="1.18" height=".91" fill="#b5b5b6"/><rect x="10.15" y="30.61" width="1.18" height=".91" fill="#b5b5b6"/><rect x="10.15" y="31.78" width="1.18" height=".91" fill="#b5b5b6"/><rect x="10.15" y="32.95" width="1.18" height=".91" fill="#b5b5b6"/><rect x="10.15" y="34.12" width="1.18" height=".91" fill="#b5b5b6"/><rect x="10.15" y="35.29" width="1.18" height=".91" fill="#b5b5b6"/><rect x="10.15" y="36.46" width="1.18" height=".91" fill="#b5b5b6"/><rect x="25.68" y="37.64" width="1.18" height=".91" fill="#b5b5b6"/><rect x="25.68" y="30.61" width="1.18" height=".91" fill="#b5b5b6"/><rect x="25.68" y="31.78" width="1.18" height=".91" fill="#b5b5b6"/><rect x="25.68" y="32.95" width="1.18" height=".91" fill="#b5b5b6"/><rect x="25.68" y="34.12" width="1.18" height=".91" fill="#b5b5b6"/><rect x="25.68" y="35.29" width="1.18" height=".91" fill="#b5b5b6"/><rect x="25.68" y="36.46" width="1.18" height=".91" fill="#b5b5b6"/><rect x="21.56" y="26.09" width=".91" height="1.18" fill="#b5b5b6"/><rect x="14.53" y="26.09" width=".91" height="1.18" fill="#b5b5b6"/><rect x="15.7" y="26.09" width=".91" height="1.18" fill="#b5b5b6"/><rect x="16.87" y="26.09" width=".91" height="1.18" fill="#b5b5b6"/><rect x="18.04" y="26.09" width=".91" height="1.18" fill="#b5b5b6"/><rect x="19.22" y="26.09" width=".91" height="1.18" fill="#b5b5b6"/><rect x="20.39" y="26.09" width=".91" height="1.18" fill="#b5b5b6"/><ellipse cx="24.08" cy="39.85" rx=".49" ry=".71" fill="#4c2611"/><g isolation="isolate"><text transform="translate(22.98 38.34) rotate(-180) scale(.96 1)" fill="#4c2611" font-family="DroidSans, &apos;Droid Sans&apos;" font-size="3.07" isolation="isolate"><tspan x="0" y="0">SILABS</tspan></text></g><g isolation="isolate"><text transform="translate(22.98 35.27) rotate(-180) scale(.96 1)" fill="#4c2611" font-family="DroidSans, &apos;Droid Sans&apos;" font-size="3.07" isolation="isolate"><tspan x="0" y="0">CP2102</tspan></text></g><g isolation="isolate"><text transform="translate(22.98 32.21) rotate(-180) scale(.96 1)" fill="#4c2611" font-family="DroidSans, &apos;Droid Sans&apos;" font-size="3.07" isolation="isolate"><tspan x="0" y="0">DC</tspan></text></g><g isolation="isolate"><text transform="translate(19.19 32.21) rotate(-180) scale(.96 1)" fill="#4c2611" font-family="DroidSans, &apos;Droid Sans&apos;" font-size="3.07" isolation="isolate"><tspan x="0" y="0">L</tspan></text></g><g isolation="isolate"><text transform="translate(17.77 32.21) rotate(-180) scale(.96 1)" fill="#4c2611" font-family="DroidSans, &apos;Droid Sans&apos;" font-size="3.07" isolation="isolate"><tspan x="0" y="0">O</tspan></text></g><g isolation="isolate"><text transform="translate(15.58 32.21) rotate(-180) scale(.96 1)" fill="#4c2611" font-family="DroidSans, &apos;Droid Sans&apos;" font-size="3.07" isolation="isolate" letter-spacing="-.02em"><tspan x="0" y="0">O</tspan></text></g><g isolation="isolate"><text transform="translate(13.45 32.21) rotate(-180) scale(.96 1)" fill="#4c2611" font-family="DroidSans, &apos;Droid Sans&apos;" font-size="3.07" isolation="isolate"><tspan x="0" y="0">X</tspan></text></g><g isolation="isolate"><text transform="translate(22.98 29.14) rotate(-180) scale(.96 1)" fill="#4c2611" font-family="DroidSans, &apos;Droid Sans&apos;" font-size="3.07" isolation="isolate"><tspan x="0" y="0">2108+</tspan></text></g><rect x="55.03" y="19.83" width="8.63" height="3.6" rx=".01" ry=".01" fill="none" stroke="#dcdddd" stroke-miterlimit="10" stroke-width=".75"/><rect x="55.88" y="20.41" width="7.04" height="2.52" fill="#c9caca"/><rect x="56.15" y="20.41" width="6.5" height="2.52" fill="#b5b5b6"/><rect x="57.06" y="20.41" width="4.69" height="2.52" rx=".57" ry=".57" fill="#3e3a39"/><g isolation="isolate"><text transform="translate(61.47 20.7) rotate(-180) scale(.92 1)" fill="#f7f9f9" font-family="DroidSans, &apos;Droid Sans&apos;" font-size="2.67" isolation="isolate"><tspan x="0" y="0">103</tspan></text></g><rect x="43.67" y="19.87" width="8.63" height="3.6" rx=".01" ry=".01" fill="none" stroke="#dcdddd" stroke-miterlimit="10" stroke-width=".75"/><rect x="44.48" y="20.37" width="7.04" height="2.52" fill="#c9caca"/><rect x="44.75" y="20.37" width="6.5" height="2.52" fill="#b5b5b6"/><rect x="45.65" y="20.37" width="4.69" height="2.52" rx=".57" ry=".57" fill="#3e3a39"/><rect x="47.29" y="20.92" width="1.42" height="1.42" fill="none" stroke="#f0efef" stroke-miterlimit="10" stroke-width=".25"/><rect x="32.24" y="19.87" width="8.66" height="3.6" rx=".01" ry=".01" fill="none" stroke="#dcdddd" stroke-miterlimit="10" stroke-width=".75"/><rect x="33.05" y="20.41" width="7.04" height="2.52" fill="#c9caca"/><rect x="33.32" y="20.41" width="6.5" height="2.52" fill="#b5b5b6"/><rect x="34.22" y="20.41" width="4.69" height="2.52" rx=".57" ry=".57" fill="#a28a78"/><rect x="19.15" y="19.85" width="8.63" height="3.6" rx=".01" ry=".01" fill="none" stroke="#dcdddd" stroke-miterlimit="10" stroke-width=".75"/><rect x="20" y="20.43" width="7.04" height="2.52" fill="#c9caca"/><rect x="20.28" y="20.43" width="6.5" height="2.52" fill="#b5b5b6"/><rect x="21.18" y="20.43" width="4.69" height="2.52" rx=".57" ry=".57" fill="#3e3a39"/><g isolation="isolate"><text transform="translate(21.22 22.74)" fill="#f7f9f9" font-family="DroidSans, &apos;Droid Sans&apos;" font-size="2.67" isolation="isolate"><tspan x="0" y="0">472</tspan></text></g><rect x="9.56" y="19.89" width="8.63" height="3.6" rx=".01" ry=".01" fill="none" stroke="#dcdddd" stroke-miterlimit="10" stroke-width=".75"/><rect x="10.42" y="20.48" width="7.04" height="2.52" fill="#c9caca"/><rect x="10.69" y="20.48" width="6.5" height="2.52" fill="#b5b5b6"/><rect x="11.59" y="20.48" width="4.69" height="2.52" rx=".57" ry=".57" fill="#3e3a39"/><g isolation="isolate"><text transform="translate(16.01 20.77) rotate(-180) scale(.97 1)" fill="#f7f9f9" font-family="DroidSans, &apos;Droid Sans&apos;" font-size="2.67" isolation="isolate"><tspan x="0" y="0">103</tspan></text></g><rect x="34.81" y="15.86" width=".91" height="1.18" fill="#b5b5b6"/><rect x="35.98" y="15.85" width=".91" height="1.18" fill="#b5b5b6"/><rect x="37.15" y="15.85" width=".91" height="1.18" fill="#b5b5b6"/><rect x="38.32" y="15.85" width=".91" height="1.18" fill="#b5b5b6"/><rect x="39.49" y="15.85" width=".91" height="1.18" fill="#b5b5b6"/><circle cx="29.49" cy="15.86" r="2.83" fill="#c9caca"/><circle cx="26.29" cy="6.17" r="2.83" fill="#c9caca"/><circle cx="48.02" cy="6.17" r="2.83" fill="#c9caca"/><circle cx="45.7" cy="15.86" r="2.83" fill="#c9caca"/><rect x="26.26" y=".27" width="22.68" height="15.59" rx=".28" ry=".28" fill="#dcdddd"/><line x1="45.7" y1="13.37" x2="45.7" y2="15.86" fill="none" stroke="#595857" stroke-miterlimit="10" stroke-width="2"/><line x1="29.51" y1="13.37" x2="29.51" y2="15.86" fill="none" stroke="#595857" stroke-miterlimit="10" stroke-width="2"/><line x1="37.61" y1="14.17" x2="37.61" y2="15.86" fill="none" stroke="#595857" stroke-miterlimit="10" stroke-width="7"/><line x1="29.49" y1="9.75" x2="29.49" y2="7.32" fill="none" stroke="#595857" stroke-miterlimit="10" stroke-width="1.5"/><line x1="30.98" y1="6.38" x2="28.01" y2="6.38" fill="none" stroke="#595857" stroke-miterlimit="10" stroke-width="2"/><line x1="45.7" y1="10.22" x2="45.7" y2="7.79" fill="none" stroke="#595857" stroke-miterlimit="10" stroke-width="1.5"/><line x1="47.19" y1="6.85" x2="44.22" y2="6.85" fill="none" stroke="#595857" stroke-miterlimit="10" stroke-width="2"/><polygon points="48.49 .33 48.23 1.33 47.62 1.33 47.25 .27 48.49 .33" fill="#3e3a39"/><polygon points="27.96 .33 27.7 1.33 27.09 1.33 26.72 .27 27.96 .33" fill="#3e3a39"/><line x1="47.29" y1=".8" x2="27.96" y2=".8" fill="none" stroke="#f0efef" stroke-miterlimit="10"/><rect x="55.23" y="3.18" width="9.89" height="12.17" fill="#f0efef"/><rect x="55.16" y="3.17" width="9.96" height="12.53" fill="none" stroke="#dcdddd" stroke-miterlimit="10" stroke-width=".75"/><rect x="10.14" y="3.17" width="9.96" height="12.53" fill="none" stroke="#dcdddd" stroke-miterlimit="10" stroke-width=".75"/><rect x="56.92" y="15.28" width="6.43" height="2.22" fill="#b5b5b6"/><rect x="56.96" y="1.32" width="6.43" height="2.22" fill="#b5b5b6"/><rect x="10.17" y="3.2" width="9.89" height="12.17" fill="#f0efef"/><rect x="11.87" y="15.3" width="6.43" height="2.22" fill="#b5b5b6"/><rect x="11.9" y="1.35" width="6.43" height="2.22" fill="#b5b5b6"/><circle cx="60.14" cy="9.41" r="2.83" fill="#322b29"/><circle cx="15.12" cy="9.29" r="2.83" fill="#322b29"/><g isolation="isolate"><text transform="translate(68.32 123.38) rotate(90)" fill="#f7f9f9" font-family="DroidSans, &apos;Droid Sans&apos;" font-size="3" isolation="isolate"><tspan x="0" y="0">EN</tspan></text></g><g isolation="isolate"><text transform="translate(68.32 116.43) rotate(90)" fill="#f7f9f9" font-family="DroidSans, &apos;Droid Sans&apos;" font-size="3" isolation="isolate"><tspan x="0" y="0">VP</tspan></text></g><g isolation="isolate"><text transform="translate(68.29 22.34) rotate(90)" fill="#f7f9f9" font-family="DroidSans, &apos;Droid Sans&apos;" font-size="3" isolation="isolate"><tspan x="0" y="0">VIN</tspan></text></g><g isolation="isolate"><text transform="translate(68.32 28.68) rotate(90)" fill="#f7f9f9" font-family="DroidSans, &apos;Droid Sans&apos;" font-size="3" isolation="isolate"><tspan x="0" y="0">GND</tspan></text></g><g isolation="isolate"><text transform="translate(68.32 36.23) rotate(90)" fill="#f7f9f9" font-family="DroidSans, &apos;Droid Sans&apos;" font-size="3" isolation="isolate"><tspan x="0" y="0">D13</tspan></text></g><g isolation="isolate"><text transform="translate(68.32 43.34) rotate(90)" fill="#f7f9f9" font-family="DroidSans, &apos;Droid Sans&apos;" font-size="3" isolation="isolate"><tspan x="0" y="0">D12</tspan></text></g><g isolation="isolate"><text transform="translate(68.32 50.08) rotate(90)" fill="#f7f9f9" font-family="DroidSans, &apos;Droid Sans&apos;" font-size="3" isolation="isolate"><tspan x="0" y="0">D14</tspan></text></g><g isolation="isolate"><text transform="translate(68.32 57.8) rotate(90)" fill="#f7f9f9" font-family="DroidSans, &apos;Droid Sans&apos;" font-size="3" isolation="isolate"><tspan x="0" y="0">D27</tspan></text></g><g isolation="isolate"><text transform="translate(68.29 64.57) rotate(90)" fill="#f7f9f9" font-family="DroidSans, &apos;Droid Sans&apos;" font-size="3" isolation="isolate"><tspan x="0" y="0">D26</tspan></text></g><g isolation="isolate"><text transform="translate(68.32 71.72) rotate(90)" fill="#f7f9f9" font-family="DroidSans, &apos;Droid Sans&apos;" font-size="3" isolation="isolate"><tspan x="0" y="0">D25</tspan></text></g><g isolation="isolate"><text transform="translate(68.32 79.54) rotate(90)" fill="#f7f9f9" font-family="DroidSans, &apos;Droid Sans&apos;" font-size="3" isolation="isolate"><tspan x="0" y="0">D33</tspan></text></g><g isolation="isolate"><text transform="translate(68.32 86.42) rotate(90)" fill="#f7f9f9" font-family="DroidSans, &apos;Droid Sans&apos;" font-size="3" isolation="isolate"><tspan x="0" y="0">D32</tspan></text></g><g isolation="isolate"><text transform="translate(68.32 93.62) rotate(90)" fill="#f7f9f9" font-family="DroidSans, &apos;Droid Sans&apos;" font-size="3" isolation="isolate"><tspan x="0" y="0">D35</tspan></text></g><g isolation="isolate"><text transform="translate(68.32 100.6) rotate(90)" fill="#f7f9f9" font-family="DroidSans, &apos;Droid Sans&apos;" font-size="3" isolation="isolate"><tspan x="0" y="0">D34</tspan></text></g><g isolation="isolate"><text transform="translate(68.32 108.9) rotate(90)" fill="#f7f9f9" font-family="DroidSans, &apos;Droid Sans&apos;" font-size="3" isolation="isolate"><tspan x="0" y="0">VN</tspan></text></g><g isolation="isolate"><text transform="translate(5.99 122.82) rotate(90)" fill="#f7f9f9" font-family="DroidSans, &apos;Droid Sans&apos;" font-size="3" isolation="isolate"><tspan x="0" y="0">D23</tspan></text></g><g isolation="isolate"><text transform="translate(5.96 115.57) rotate(90)" fill="#f7f9f9" font-family="DroidSans, &apos;Droid Sans&apos;" font-size="3" isolation="isolate"><tspan x="0" y="0">D22</tspan></text></g><g isolation="isolate"><text transform="translate(5.86 22.03) rotate(90)" fill="#f7f9f9" font-family="DroidSans, &apos;Droid Sans&apos;" font-size="3" isolation="isolate"><tspan x="0" y="0">3V3</tspan></text></g><g isolation="isolate"><text transform="translate(5.8 28.67) rotate(90)" fill="#f7f9f9" font-family="DroidSans, &apos;Droid Sans&apos;" font-size="3" isolation="isolate"><tspan x="0" y="0">GND</tspan></text></g><g isolation="isolate"><text transform="translate(5.83 36.2) rotate(90)" fill="#f7f9f9" font-family="DroidSans, &apos;Droid Sans&apos;" font-size="3" isolation="isolate"><tspan x="0" y="0">D15</tspan></text></g><g isolation="isolate"><text transform="translate(5.89 44.32) rotate(90)" fill="#f7f9f9" font-family="DroidSans, &apos;Droid Sans&apos;" font-size="3" isolation="isolate"><tspan x="0" y="0">D2</tspan></text></g><g isolation="isolate"><text transform="translate(5.83 51.33) rotate(90)" fill="#f7f9f9" font-family="DroidSans, &apos;Droid Sans&apos;" font-size="3" isolation="isolate"><tspan x="0" y="0">D4</tspan></text></g><g isolation="isolate"><text transform="translate(5.83 57.62) rotate(90)" fill="#f7f9f9" font-family="DroidSans, &apos;Droid Sans&apos;" font-size="3" isolation="isolate"><tspan x="0" y="0">RX2</tspan></text></g><g isolation="isolate"><text transform="translate(5.83 65.29) rotate(90)" fill="#f7f9f9" font-family="DroidSans, &apos;Droid Sans&apos;" font-size="3" isolation="isolate"><tspan x="0" y="0">TX2</tspan></text></g><g isolation="isolate"><text transform="translate(5.86 73.07) rotate(90)" fill="#f7f9f9" font-family="DroidSans, &apos;Droid Sans&apos;" font-size="3" isolation="isolate"><tspan x="0" y="0">D5</tspan></text></g><g isolation="isolate"><text transform="translate(5.89 79.24) rotate(90)" fill="#f7f9f9" font-family="DroidSans, &apos;Droid Sans&apos;" font-size="3" isolation="isolate"><tspan x="0" y="0">D18</tspan></text></g><g isolation="isolate"><text transform="translate(5.93 86.81) rotate(90)" fill="#f7f9f9" font-family="DroidSans, &apos;Droid Sans&apos;" font-size="3" isolation="isolate"><tspan x="0" y="0">D19</tspan></text></g><g isolation="isolate"><text transform="translate(5.89 93.82) rotate(90)" fill="#f7f9f9" font-family="DroidSans, &apos;Droid Sans&apos;" font-size="3" isolation="isolate"><tspan x="0" y="0">D21</tspan></text></g><g isolation="isolate"><text transform="translate(5.93 101.02) rotate(90)" fill="#f7f9f9" font-family="DroidSans, &apos;Droid Sans&apos;" font-size="3" isolation="isolate"><tspan x="0" y="0">RX0</tspan></text></g><g isolation="isolate"><text transform="translate(5.96 108.36) rotate(90)" fill="#f7f9f9" font-family="DroidSans, &apos;Droid Sans&apos;" font-size="3" isolation="isolate"><tspan x="0" y="0">TX0</tspan></text></g><g id="connector0pin"><rect x="1.02" y="22.41" width="4.25" height="4.25" fill="#9fa0a0"/><circle cx="3.14" cy="24.54" r="1.06" fill="#c9caca"/></g><circle cx="3.14" cy="31.73" r="2.13" fill="#8a8a8a"/><circle cx="3.14" cy="31.73" r="1.06" fill="#c9caca"/><g id="connector2pin"><circle cx="3.14" cy="38.92" r="2.13" fill="#8a8a8a"/><circle cx="3.14" cy="38.92" r="1.06" fill="#c9caca"/></g><g id="connector3pin"><circle cx="3.15" cy="46.12" r="2.13" fill="#8a8a8a"/><circle cx="3.15" cy="46.12" r="1.06" fill="#c9caca"/></g><g id="connector4pin"><circle cx="3.15" cy="53.32" r="2.13" fill="#8a8a8a"/><circle cx="3.15" cy="53.32" r="1.06" fill="#c9caca"/></g><g id="connector5pin"><circle cx="3.15" cy="60.52" r="2.13" fill="#8a8a8a"/><circle cx="3.15" cy="60.52" r="1.06" fill="#c9caca"/></g><g id="connector6pin"><circle cx="3.15" cy="67.73" r="2.13" fill="#8a8a8a"/><circle cx="3.15" cy="67.73" r="1.06" fill="#c9caca"/></g><g id="connector7pin"><circle cx="3.15" cy="74.94" r="2.13" fill="#8a8a8a"/><circle cx="3.15" cy="74.94" r="1.06" fill="#c9caca"/></g><g id="connector8pin"><circle cx="3.15" cy="82.14" r="2.13" fill="#8a8a8a"/><circle cx="3.15" cy="82.14" r="1.06" fill="#c9caca"/></g><g id="connector9pin"><circle cx="3.15" cy="89.32" r="2.13" fill="#8a8a8a"/><circle cx="3.15" cy="89.32" r="1.06" fill="#c9caca"/></g><g id="connector10pin"><circle cx="3.15" cy="96.54" r="2.13" fill="#8a8a8a"/><circle cx="3.15" cy="96.54" r="1.06" fill="#c9caca"/></g><g id="connector11pin"><circle cx="3.15" cy="103.74" r="2.13" fill="#8a8a8a"/><circle cx="3.15" cy="103.74" r="1.06" fill="#c9caca"/></g><g id="connector12pin"><circle cx="3.15" cy="110.94" r="2.13" fill="#8a8a8a"/><circle cx="3.15" cy="110.94" r="1.06" fill="#c9caca"/></g><g id="connector13pin"><circle cx="3.15" cy="118.12" r="2.13" fill="#8a8a8a"/><circle cx="3.15" cy="118.12" r="1.06" fill="#c9caca"/></g><g id="connector14pin"><circle cx="3.15" cy="125.32" r="2.13" fill="#8a8a8a"/><circle cx="3.15" cy="125.32" r="1.06" fill="#c9caca"/></g><g id="connector15pin"><circle cx="73.14" cy="125.32" r="2.13" fill="#8a8a8a"/><circle cx="73.14" cy="125.32" r="1.06" fill="#c9caca"/></g><g id="connector16pin"><circle cx="73.14" cy="110.94" r="2.13" fill="#8a8a8a"/><circle cx="73.14" cy="110.94" r="1.06" fill="#c9caca"/></g><g id="connector17pin"><circle cx="73.14" cy="103.74" r="2.13" fill="#8a8a8a"/><circle cx="73.14" cy="103.74" r="1.06" fill="#c9caca"/></g><g id="connector18pin"><circle cx="73.14" cy="96.52" r="2.13" fill="#8a8a8a"/><circle cx="73.14" cy="96.52" r="1.06" fill="#c9caca"/></g><g id="connector19pin"><circle cx="73.14" cy="89.34" r="2.13" fill="#8a8a8a"/><circle cx="73.14" cy="89.34" r="1.06" fill="#c9caca"/></g><g id="connector20pin"><circle cx="73.14" cy="82.14" r="2.13" fill="#8a8a8a"/><circle cx="73.14" cy="82.14" r="1.06" fill="#c9caca"/></g><g id="connector21pin"><circle cx="73.14" cy="74.92" r="2.13" fill="#8a8a8a"/><circle cx="73.14" cy="74.92" r="1.06" fill="#c9caca"/></g><g id="connector22pin"><circle cx="73.14" cy="67.74" r="2.13" fill="#8a8a8a"/><circle cx="73.14" cy="67.74" r="1.06" fill="#c9caca"/></g><g id="connector23pin"><circle cx="73.14" cy="60.54" r="2.13" fill="#8a8a8a"/><circle cx="73.14" cy="60.54" r="1.06" fill="#c9caca"/></g><g id="connector24pin"><circle cx="73.14" cy="53.32" r="2.13" fill="#8a8a8a"/><circle cx="73.14" cy="53.32" r="1.06" fill="#c9caca"/></g><g id="connectorp25in"><circle cx="73.14" cy="46.14" r="2.13" fill="#8a8a8a"/><circle cx="73.14" cy="46.14" r="1.06" fill="#c9caca"/></g><g id="connector26pin"><circle cx="73.14" cy="38.92" r="2.13" fill="#8a8a8a"/><circle cx="73.14" cy="38.92" r="1.06" fill="#c9caca"/></g><g id="connector27pin"><circle cx="73.14" cy="31.74" r="2.13" fill="#8a8a8a"/><circle cx="73.14" cy="31.74" r="1.06" fill="#c9caca"/></g><g id="connector28pin"><circle cx="73.14" cy="118.14" r="2.13" fill="#8a8a8a"/><circle cx="73.14" cy="118.14" r="1.06" fill="#c9caca"/></g><g id="connector29pin"><rect x="71.02" y="22.41" width="4.25" height="4.25" fill="#9fa0a0"/><circle cx="73.14" cy="24.53" r="1.06" fill="#c9caca"/></g></svg>